<svg height="1500pt" preserveAspectRatio="xMidYMid meet" viewBox="0 0 1500 1500" width="1500pt" xmlns="http://www.w3.org/2000/svg"><g transform="matrix(.1 0 0 -.1 0 1500)"><path d="m3698 12200c-45-24-83-72-96-123-8-26-8-98-1-230 12-215 25-262 88-304 38-26 3362-1355 3369-1348 3 3 3 6 1 8s-719 455-1594 1007l-1590 1004-70 3c-55 3-78-1-107-17z"/><path d="m11085 12177c-42-14-3158-1977-3150-1985 2-2 755 295 1674 662 1559 623 1672 669 1710 707 23 24 46 59 55 87 21 67 32 309 16 366-15 55-69 120-120 146s-134 33-185 17z"/><path d="m2853 11556c-39-18-61-38-84-73l-31-48 7-223c3-123 9-230 12-238s15-16 27-19c11-3 957-197 2101-430 1144-234 2091-427 2105-431 16-3 21-2 15 4-5 5-908 339-2005 742-1364 501-2011 734-2045 737-39 3-62-2-102-21z"/><path d="m11850 11518c-313-111-3850-1414-3850-1420 0-3 8-4 18-2 9 2 964 198 2121 434 1157 237 2106 431 2107 433 2 2 5 84 6 183 3 177 3 180-24 229-74 140-225 197-378 143z"/><path d="m2095 10826c-77-34-125-112-125-208 0-89 539-6285 551-6331 11-42 68-111 108-132 14-7 1112-322 2440-700 1860-529 2422-686 2450-682 84 12 4828 1369 4868 1393 47 27 88 88 97 144 17 100 547 6256 544 6321-2 63-7 82-30 115-44 63-90 88-167 92-66 3-80 1-1446-242-170-30-1025-177-1900-326-874-149-1607-276-1627-282-51-15-102-60-127-111-20-41-22-73-35-478-8-239-13-435-12-436s60-9 131-18c527-64 1001-282 1404-643l54-49-277-281-278-281-77 65c-253 218-600 370-912 400l-67 7-6-94c-6-102-96-3054-96-3157v-63l73 6c673 61 1245 513 1457 1154 56 167 90 356 90 498v52l-249 3c-228 3-251 5-270 22-27 24-27 52 2 96 12 20 195 207 407 416 412 408 412 408 512 407 26 0 66-10 90-22 58-27 824-794 833-833 19-77-19-88-303-88h-229l-6-142c-37-876-570-1694-1366-2097-313-158-604-237-987-267l-81-6-6-161c-4-89-10-287-14-439-3-153-9-278-13-278s-10 123-14 273c-3 149-9 347-13 439l-6 166-111 7c-595 36-1109 252-1554 654l-83 75 277 277 277 277 81-70c268-232 600-375 952-410 68-6 127-9 130-5 8 7-83 3215-92 3276l-5 33-57-7c-428-51-843-289-1115-637-213-273-325-574-353-945l-6-91 244-4c212-3 247-5 271-21 31-20 43-57 29-84-20-35-400-431-595-618-252-243-292-266-400-229-40 13-99 70-447 420-221 223-406 416-412 429s-8 34-5 48c12 45 44 51 293 55l231 4 6 124c54 1054 776 1964 1793 2259 119 35 314 74 407 81 41 4 80 10 86 13 8 5 7 132-3 437-15 481-16 487-89 549-23 20-57 40-76 45-20 5-801 140-1736 299-935 160-1916 329-2180 376s-593 106-731 130c-260 47-348 53-399 31z"/></g></svg>